# xmcd
#
# Track frame offsets: 
#        150
#        13800
#        21303
#        30906
#        48291
#        57545
#        69479
#        82192
#        97449
#        111217
#
# Disc length: 1650 seconds
#
# Revision: 0
# Processed by: cddbd v1.5.2PL0 Copyright (c) Steve Scherf et al.
# Submitted via: ExactAudioCopy v1.0b1
#
DISCID=8906700a
DTITLE=Andy Miller and Doc West - Better This Way
DYEAR=2006
DGENRE=Blues
TTITLE0=You're The Best
TTITLE1=Beat Me Daddy
TTITLE2=Better This Way
TTITLE3=Dreamland
TTITLE4=Blue Lake Blues
TTITLE5=Last Minute Call
TTITLE6=3-Minute Eggs
TTITLE7=Tom Tom's Blues
TTITLE8=Black Top
TTITLE9=Fast Eddy-Slow
EXTD=
EXTT0=
EXTT1=
EXTT2=
EXTT3=
EXTT4=
EXTT5=
EXTT6=
EXTT7=
EXTT8=
EXTT9=
PLAYORDER=
